<svg width="44" height="44" viewBox="0 0 44 44" fill="none" xmlns="http://www.w3.org/2000/svg">
<path fill-rule="evenodd" clip-rule="evenodd" d="M10.0151 0C4.48391 0 0 4.4839 0 10.0151V33.8009C0 39.3321 4.4839 43.816 10.0151 43.816H33.8009C39.3321 43.816 43.816 39.3321 43.816 33.8009V10.0151C43.816 4.48391 39.3321 0 33.8009 0H10.0151ZM15.3278 7.18354C16.9192 7.11093 17.4273 7.09375 21.4794 7.09375C25.5315 7.09375 26.0396 7.11093 27.631 7.18354C29.2191 7.25597 30.3037 7.50821 31.2527 7.87707C32.2338 8.25831 33.0659 8.76848 33.8954 9.59794C34.7249 10.4275 35.2351 11.2595 35.6163 12.2407C35.9852 13.1897 36.2374 14.2743 36.3098 15.8624C36.3824 17.4538 36.3996 17.9619 36.3996 22.014C36.3996 26.066 36.3824 26.5741 36.3098 28.1655C36.2374 29.7536 35.9852 30.8382 35.6163 31.7873C35.2351 32.7684 34.7249 33.6005 33.8954 34.43C33.0659 35.2594 32.2338 35.7696 31.2527 36.1509C30.3037 36.5197 29.2191 36.7719 27.631 36.8444C26.0396 36.917 25.5315 36.9342 21.4794 36.9342C17.4273 36.9342 16.9192 36.917 15.3278 36.8444C13.7397 36.7719 12.6551 36.5197 11.7061 36.1509C10.725 35.7696 9.89291 35.2594 9.06339 34.43C8.23393 33.6005 7.72376 32.7684 7.34253 31.7873C6.97367 30.8382 6.72142 29.7536 6.64899 28.1655C6.57638 26.5741 6.5592 26.066 6.5592 22.014C6.5592 17.9619 6.57638 17.4538 6.64899 15.8624C6.72142 14.2743 6.97367 13.1897 7.34253 12.2407C7.72376 11.2595 8.23393 10.4275 9.06339 9.59794C9.89291 8.76848 10.725 8.25831 11.7061 7.87707C12.6551 7.50821 13.7397 7.25597 15.3278 7.18354ZM27.5084 9.86903C25.9352 9.79724 25.4632 9.78202 21.4794 9.78202C17.4955 9.78202 17.0236 9.79724 15.4503 9.86903C13.9956 9.93536 13.2056 10.1784 12.6799 10.3827C11.9834 10.6534 11.4864 10.9767 10.9643 11.4989C10.4422 12.0209 10.1189 12.518 9.84824 13.2144C9.64391 13.7401 9.40084 14.5302 9.33451 15.9849C9.26273 17.5581 9.24751 18.03 9.24751 22.0139C9.24751 25.9978 9.26273 26.4697 9.33451 28.0429C9.40084 29.4977 9.64391 30.2877 9.84824 30.8134C10.1189 31.5098 10.4423 32.0069 10.9643 32.5289C11.4864 33.0511 11.9834 33.3744 12.6799 33.6451C13.2056 33.8494 13.9956 34.0925 15.4503 34.1588C17.0234 34.2306 17.4952 34.2458 21.4794 34.2458C25.4635 34.2458 25.9354 34.2306 27.5084 34.1588C28.9631 34.0925 29.7532 33.8494 30.2789 33.6451C30.9753 33.3744 31.4724 33.0511 31.9944 32.5289C32.5166 32.0069 32.8399 31.5098 33.1105 30.8134C33.3149 30.2877 33.5579 29.4977 33.6243 28.0429C33.6961 26.4697 33.7113 25.9978 33.7113 22.0139C33.7113 18.03 33.6961 17.5581 33.6243 15.9849C33.5579 14.5302 33.3149 13.7401 33.1105 13.2144C32.8399 12.518 32.5166 12.0209 31.9944 11.4989C31.4724 10.9767 30.9753 10.6534 30.2789 10.3827C29.7532 10.1784 28.9631 9.93536 27.5084 9.86903ZM21.4793 27.1723C18.9456 27.1723 16.8916 25.1183 16.8916 22.5846C16.8916 20.0509 18.9456 17.9969 21.4793 17.9969C24.013 17.9969 26.0669 20.0509 26.0669 22.5846C26.0669 25.1183 24.013 27.1723 21.4793 27.1723ZM21.4794 15.5171C17.5761 15.5171 14.4119 18.6813 14.4119 22.5846C14.4119 26.4878 17.5761 29.652 21.4794 29.652C25.3826 29.652 28.5468 26.4878 28.5468 22.5846C28.5468 18.6813 25.3826 15.5171 21.4794 15.5171ZM26.9763 13.9466C26.9763 14.8139 27.6795 15.5171 28.5468 15.5171C29.4142 15.5171 30.1174 14.8139 30.1174 13.9466C30.1174 13.0792 29.4142 12.376 28.5468 12.376C27.6795 12.376 26.9763 13.0792 26.9763 13.9466Z" fill="#DDA15E"/>
</svg>
