<svg width="44" height="45" viewBox="0 0 44 45" fill="none" xmlns="http://www.w3.org/2000/svg">
<path fill-rule="evenodd" clip-rule="evenodd" d="M10.4583 0C4.68236 0 0 4.68235 0 10.4583V33.7885C0 39.5644 4.68236 44.2468 10.4583 44.2468H32.984C38.76 44.2468 43.4423 39.5644 43.4423 33.7885V10.4583C43.4423 4.68235 38.7599 0 32.984 0H10.4583ZM28.4803 6.43604C28.4798 8.2907 29.1562 10.0824 30.3837 11.4775C32.8259 14.2843 36.2019 14.1234 36.2019 14.1234V19.6475C33.4318 19.6522 30.7303 18.7891 28.4803 17.1804V28.4254C28.4803 34.0568 23.9012 38.6155 18.2626 38.6155C13.0011 38.6155 8.04486 34.3786 8.04486 28.4254C8.04486 22.3112 13.468 17.5201 19.6632 18.3424V23.9917C16.5925 23.0442 13.6116 25.3504 13.6116 28.4254C13.6116 30.9997 15.7306 33.0735 18.2805 33.0735C19.4863 33.0733 20.6449 32.6074 21.5124 31.7737C22.3799 30.94 22.8887 29.8037 22.9315 28.6041V6.43604H28.4803Z" fill="#DDA15E"/>
</svg>
