<svg width="44" height="45" viewBox="0 0 44 45" fill="none" xmlns="http://www.w3.org/2000/svg">
<path fill-rule="evenodd" clip-rule="evenodd" d="M10.4583 0C4.68236 0 0 4.68235 0 10.4583V33.7885C0 39.5644 4.68236 44.2468 10.4583 44.2468H32.984C38.76 44.2468 43.4423 39.5644 43.4423 33.7885V10.4583C43.4423 4.68235 38.7599 0 32.984 0H10.4583ZM25.81 22.9279L18.5032 27.2377V18.6182L25.81 22.9279ZM35.1722 18.7187C35.0877 17.5695 34.961 16.6644 34.778 15.9892C34.426 14.6963 33.6095 13.8631 32.3424 13.5039C30.8923 13.1017 27.2178 12.8718 21.3189 12.8718L19.0805 12.958C17.5318 12.958 15.8565 13.0011 14.0263 13.1017C12.1679 13.1879 10.9571 13.3172 10.2955 13.5039C9.02839 13.8631 8.21184 14.6963 7.85987 15.9892C7.46567 17.4689 7.24042 19.7818 7.24042 22.9279L7.32489 24.1346C7.32489 24.9966 7.36712 25.9878 7.46567 27.1371C7.55015 28.2864 7.67685 29.1914 7.85987 29.8666C8.21184 31.1595 9.02839 31.9928 10.2955 32.3519C11.7455 32.7542 15.42 32.984 21.3189 32.984L23.5574 32.8978C25.1061 32.8978 26.7814 32.8547 28.6116 32.7542C30.47 32.668 31.6807 32.5387 32.3424 32.3519C33.6095 31.9928 34.426 31.1595 34.778 29.8666C35.1722 28.3869 35.3975 26.074 35.3975 22.9279L35.313 21.7212C35.313 20.8592 35.2708 19.868 35.1722 18.7187Z" fill="#DDA15E"/>
</svg>
